<mxfile host="app.diagrams.net" agent="Mozilla/5.0 (Windows NT 10.0; Win64; x64) AppleWebKit/537.36 (KHTML, like Gecko) Chrome/129.0.0.0 Safari/537.36" scale="1" border="0" version="24.7.17">
  <diagram name="Página-1" id="xUXwb_P7_5p7yVlIpApA">
    <mxGraphModel dx="712" dy="829" grid="1" gridSize="10" guides="1" tooltips="1" connect="1" arrows="1" fold="1" page="1" pageScale="1" pageWidth="827" pageHeight="1169" math="0" shadow="0">
      <root>
        <mxCell id="0" />
        <mxCell id="1" parent="0" />
        <mxCell id="ggH6qVAM2lmH8Wj2QLWl-110" value="Condición" style="ellipse;whiteSpace=wrap;html=1;" parent="1" vertex="1">
          <mxGeometry x="310" y="10" width="120" height="80" as="geometry" />
        </mxCell>
        <mxCell id="uagx2OvaHW0bifwhurHR-2" value="Fecha inicio" style="ellipse;whiteSpace=wrap;html=1;" vertex="1" parent="1">
          <mxGeometry x="640" y="160" width="120" height="80" as="geometry" />
        </mxCell>
        <mxCell id="uagx2OvaHW0bifwhurHR-37" value="" style="group" vertex="1" connectable="0" parent="1">
          <mxGeometry x="50" y="40" width="690" height="560" as="geometry" />
        </mxCell>
        <mxCell id="ggH6qVAM2lmH8Wj2QLWl-101" value="" style="ellipse;whiteSpace=wrap;html=1;" parent="uagx2OvaHW0bifwhurHR-37" vertex="1">
          <mxGeometry x="410" y="370" width="120" height="80" as="geometry" />
        </mxCell>
        <mxCell id="ggH6qVAM2lmH8Wj2QLWl-6" value="pelicula" style="rounded=1;whiteSpace=wrap;html=1;" parent="uagx2OvaHW0bifwhurHR-37" vertex="1">
          <mxGeometry x="130" y="210" width="120" height="60" as="geometry" />
        </mxCell>
        <mxCell id="ggH6qVAM2lmH8Wj2QLWl-7" value="cliente" style="rounded=1;whiteSpace=wrap;html=1;" parent="uagx2OvaHW0bifwhurHR-37" vertex="1">
          <mxGeometry x="400" y="290" width="120" height="60" as="geometry" />
        </mxCell>
        <mxCell id="ggH6qVAM2lmH8Wj2QLWl-8" value="actores" style="rounded=1;whiteSpace=wrap;html=1;" parent="uagx2OvaHW0bifwhurHR-37" vertex="1">
          <mxGeometry x="130" y="410" width="120" height="60" as="geometry" />
        </mxCell>
        <mxCell id="ggH6qVAM2lmH8Wj2QLWl-9" value="copias" style="rounded=1;whiteSpace=wrap;html=1;" parent="uagx2OvaHW0bifwhurHR-37" vertex="1">
          <mxGeometry x="380" y="10" width="120" height="60" as="geometry" />
        </mxCell>
        <mxCell id="ggH6qVAM2lmH8Wj2QLWl-10" value="titulo" style="ellipse;whiteSpace=wrap;html=1;" parent="uagx2OvaHW0bifwhurHR-37" vertex="1">
          <mxGeometry x="30" y="130" width="120" height="80" as="geometry" />
        </mxCell>
        <mxCell id="ggH6qVAM2lmH8Wj2QLWl-11" value="productor" style="ellipse;whiteSpace=wrap;html=1;" parent="uagx2OvaHW0bifwhurHR-37" vertex="1">
          <mxGeometry x="160" y="100" width="120" height="80" as="geometry" />
        </mxCell>
        <mxCell id="ggH6qVAM2lmH8Wj2QLWl-12" value="fecha estreno" style="ellipse;whiteSpace=wrap;html=1;" parent="uagx2OvaHW0bifwhurHR-37" vertex="1">
          <mxGeometry y="240" width="120" height="80" as="geometry" />
        </mxCell>
        <mxCell id="ggH6qVAM2lmH8Wj2QLWl-13" value="nacionalidad" style="ellipse;whiteSpace=wrap;html=1;" parent="uagx2OvaHW0bifwhurHR-37" vertex="1">
          <mxGeometry x="70" y="40" width="120" height="80" as="geometry" />
        </mxCell>
        <mxCell id="ggH6qVAM2lmH8Wj2QLWl-14" value="nombre" style="ellipse;whiteSpace=wrap;html=1;" parent="uagx2OvaHW0bifwhurHR-37" vertex="1">
          <mxGeometry x="30" y="480" width="120" height="80" as="geometry" />
        </mxCell>
        <mxCell id="ggH6qVAM2lmH8Wj2QLWl-15" value="nacionalidad" style="ellipse;whiteSpace=wrap;html=1;" parent="uagx2OvaHW0bifwhurHR-37" vertex="1">
          <mxGeometry x="10" y="380" width="120" height="80" as="geometry" />
        </mxCell>
        <mxCell id="ggH6qVAM2lmH8Wj2QLWl-16" value="genero" style="ellipse;whiteSpace=wrap;html=1;" parent="uagx2OvaHW0bifwhurHR-37" vertex="1">
          <mxGeometry x="180" y="480" width="120" height="80" as="geometry" />
        </mxCell>
        <mxCell id="ggH6qVAM2lmH8Wj2QLWl-19" value="Id" style="ellipse;whiteSpace=wrap;html=1;" parent="uagx2OvaHW0bifwhurHR-37" vertex="1">
          <mxGeometry x="510" width="120" height="80" as="geometry" />
        </mxCell>
        <mxCell id="ggH6qVAM2lmH8Wj2QLWl-20" value="" style="endArrow=none;html=1;rounded=0;fontSize=12;startSize=8;endSize=8;curved=1;" parent="uagx2OvaHW0bifwhurHR-37" edge="1">
          <mxGeometry width="50" height="50" relative="1" as="geometry">
            <mxPoint x="540" y="50" as="sourcePoint" />
            <mxPoint x="600" y="50" as="targetPoint" />
          </mxGeometry>
        </mxCell>
        <mxCell id="ggH6qVAM2lmH8Wj2QLWl-21" value="nombre" style="ellipse;whiteSpace=wrap;html=1;" parent="uagx2OvaHW0bifwhurHR-37" vertex="1">
          <mxGeometry x="530" y="355" width="120" height="80" as="geometry" />
        </mxCell>
        <mxCell id="ggH6qVAM2lmH8Wj2QLWl-22" value="direccion&lt;span style=&quot;color: rgba(0, 0, 0, 0); font-family: monospace; font-size: 0px; text-align: start; text-wrap: nowrap;&quot;&gt;%3CmxGraphModel%3E%3Croot%3E%3CmxCell%20id%3D%220%22%2F%3E%3CmxCell%20id%3D%221%22%20parent%3D%220%22%2F%3E%3CmxCell%20id%3D%222%22%20value%3D%22%22%20style%3D%22ellipse%3BwhiteSpace%3Dwrap%3Bhtml%3D1%3B%22%20vertex%3D%221%22%20parent%3D%221%22%3E%3CmxGeometry%20x%3D%22480%22%20y%3D%22160%22%20width%3D%22120%22%20height%3D%2280%22%20as%3D%22geometry%22%2F%3E%3C%2FmxCell%3E%3C%2Froot%3E%3C%2FmxGraphModel%3E&lt;/span&gt;&lt;span style=&quot;color: rgba(0, 0, 0, 0); font-family: monospace; font-size: 0px; text-align: start; text-wrap: nowrap;&quot;&gt;%3CmxGraphModel%3E%3Croot%3E%3CmxCell%20id%3D%220%22%2F%3E%3CmxCell%20id%3D%221%22%20parent%3D%220%22%2F%3E%3CmxCell%20id%3D%222%22%20value%3D%22%22%20style%3D%22ellipse%3BwhiteSpace%3Dwrap%3Bhtml%3D1%3B%22%20vertex%3D%221%22%20parent%3D%221%22%3E%3CmxGeometry%20x%3D%22480%22%20y%3D%22160%22%20width%3D%22120%22%20height%3D%2280%22%20as%3D%22geometry%22%2F%3E%3C%2FmxCell%3E%3C%2Froot%3E%3C%2FmxGraphModel%3E&lt;/span&gt;" style="ellipse;whiteSpace=wrap;html=1;" parent="uagx2OvaHW0bifwhurHR-37" vertex="1">
          <mxGeometry x="486" y="450" width="120" height="80" as="geometry" />
        </mxCell>
        <mxCell id="ggH6qVAM2lmH8Wj2QLWl-23" value="telefono" style="ellipse;whiteSpace=wrap;html=1;" parent="uagx2OvaHW0bifwhurHR-37" vertex="1">
          <mxGeometry x="420" y="377.5" width="100" height="65" as="geometry" />
        </mxCell>
        <mxCell id="ggH6qVAM2lmH8Wj2QLWl-24" value="" style="endArrow=classic;startArrow=classic;html=1;rounded=0;fontSize=12;startSize=8;endSize=8;curved=1;entryX=0.5;entryY=1;entryDx=0;entryDy=0;" parent="uagx2OvaHW0bifwhurHR-37" target="ggH6qVAM2lmH8Wj2QLWl-6" edge="1">
          <mxGeometry width="50" height="50" relative="1" as="geometry">
            <mxPoint x="190" y="410" as="sourcePoint" />
            <mxPoint x="240" y="360" as="targetPoint" />
          </mxGeometry>
        </mxCell>
        <mxCell id="ggH6qVAM2lmH8Wj2QLWl-26" value="actuar" style="rhombus;whiteSpace=wrap;html=1;" parent="uagx2OvaHW0bifwhurHR-37" vertex="1">
          <mxGeometry x="150" y="300" width="80" height="80" as="geometry" />
        </mxCell>
        <mxCell id="ggH6qVAM2lmH8Wj2QLWl-28" value="1...N" style="text;html=1;align=center;verticalAlign=middle;whiteSpace=wrap;rounded=0;fontSize=16;" parent="uagx2OvaHW0bifwhurHR-37" vertex="1">
          <mxGeometry x="130" y="380" width="60" height="30" as="geometry" />
        </mxCell>
        <mxCell id="ggH6qVAM2lmH8Wj2QLWl-29" value="1...N" style="text;html=1;align=center;verticalAlign=middle;whiteSpace=wrap;rounded=0;fontSize=16;" parent="uagx2OvaHW0bifwhurHR-37" vertex="1">
          <mxGeometry x="130" y="270" width="60" height="30" as="geometry" />
        </mxCell>
        <mxCell id="ggH6qVAM2lmH8Wj2QLWl-30" value="" style="endArrow=classic;startArrow=classic;html=1;rounded=0;fontSize=12;startSize=8;endSize=8;curved=1;exitX=1;exitY=0.5;exitDx=0;exitDy=0;entryX=0.5;entryY=1;entryDx=0;entryDy=0;" parent="uagx2OvaHW0bifwhurHR-37" source="ggH6qVAM2lmH8Wj2QLWl-31" target="ggH6qVAM2lmH8Wj2QLWl-9" edge="1">
          <mxGeometry width="50" height="50" relative="1" as="geometry">
            <mxPoint x="420" y="440" as="sourcePoint" />
            <mxPoint x="470" y="390" as="targetPoint" />
          </mxGeometry>
        </mxCell>
        <mxCell id="ggH6qVAM2lmH8Wj2QLWl-32" value="" style="endArrow=classic;startArrow=classic;html=1;rounded=0;fontSize=12;startSize=8;endSize=8;curved=1;exitX=1;exitY=0.5;exitDx=0;exitDy=0;entryX=0.075;entryY=0.6;entryDx=0;entryDy=0;entryPerimeter=0;" parent="uagx2OvaHW0bifwhurHR-37" source="ggH6qVAM2lmH8Wj2QLWl-6" target="ggH6qVAM2lmH8Wj2QLWl-31" edge="1">
          <mxGeometry width="50" height="50" relative="1" as="geometry">
            <mxPoint x="250" y="240" as="sourcePoint" />
            <mxPoint x="440" y="70" as="targetPoint" />
          </mxGeometry>
        </mxCell>
        <mxCell id="ggH6qVAM2lmH8Wj2QLWl-31" value="corresponder" style="rhombus;whiteSpace=wrap;html=1;" parent="uagx2OvaHW0bifwhurHR-37" vertex="1">
          <mxGeometry x="330" y="90" width="80" height="80" as="geometry" />
        </mxCell>
        <mxCell id="ggH6qVAM2lmH8Wj2QLWl-33" value="" style="endArrow=classic;startArrow=classic;html=1;rounded=0;fontSize=12;startSize=8;endSize=8;curved=1;entryX=0.5;entryY=1;entryDx=0;entryDy=0;exitX=0;exitY=0;exitDx=0;exitDy=0;" parent="uagx2OvaHW0bifwhurHR-37" source="ggH6qVAM2lmH8Wj2QLWl-34" target="ggH6qVAM2lmH8Wj2QLWl-9" edge="1">
          <mxGeometry width="50" height="50" relative="1" as="geometry">
            <mxPoint x="460" y="290" as="sourcePoint" />
            <mxPoint x="510" y="240" as="targetPoint" />
          </mxGeometry>
        </mxCell>
        <mxCell id="ggH6qVAM2lmH8Wj2QLWl-34" value="obtener" style="rhombus;whiteSpace=wrap;html=1;" parent="uagx2OvaHW0bifwhurHR-37" vertex="1">
          <mxGeometry x="510" y="155" width="80" height="80" as="geometry" />
        </mxCell>
        <mxCell id="ggH6qVAM2lmH8Wj2QLWl-100" value="" style="endArrow=none;html=1;rounded=0;fontSize=12;startSize=8;endSize=8;curved=1;" parent="uagx2OvaHW0bifwhurHR-37" edge="1">
          <mxGeometry width="50" height="50" relative="1" as="geometry">
            <mxPoint x="50" y="180" as="sourcePoint" />
            <mxPoint x="120" y="180" as="targetPoint" />
          </mxGeometry>
        </mxCell>
        <mxCell id="ggH6qVAM2lmH8Wj2QLWl-102" value="" style="endArrow=none;html=1;rounded=0;fontSize=12;startSize=8;endSize=8;curved=1;" parent="uagx2OvaHW0bifwhurHR-37" edge="1">
          <mxGeometry width="50" height="50" relative="1" as="geometry">
            <mxPoint x="560" y="402" as="sourcePoint" />
            <mxPoint x="630" y="402" as="targetPoint" />
          </mxGeometry>
        </mxCell>
        <mxCell id="ggH6qVAM2lmH8Wj2QLWl-103" value="" style="endArrow=none;html=1;rounded=0;fontSize=12;startSize=8;endSize=8;curved=1;" parent="uagx2OvaHW0bifwhurHR-37" edge="1">
          <mxGeometry width="50" height="50" relative="1" as="geometry">
            <mxPoint x="50" y="530" as="sourcePoint" />
            <mxPoint x="130" y="530" as="targetPoint" />
          </mxGeometry>
        </mxCell>
        <mxCell id="ggH6qVAM2lmH8Wj2QLWl-105" value="1...N" style="text;html=1;align=center;verticalAlign=middle;whiteSpace=wrap;rounded=0;fontSize=16;" parent="uagx2OvaHW0bifwhurHR-37" vertex="1">
          <mxGeometry x="440" y="70" width="60" height="30" as="geometry" />
        </mxCell>
        <mxCell id="ggH6qVAM2lmH8Wj2QLWl-106" value="1...N" style="text;html=1;align=center;verticalAlign=middle;whiteSpace=wrap;rounded=0;fontSize=16;" parent="uagx2OvaHW0bifwhurHR-37" vertex="1">
          <mxGeometry x="390" y="260" width="60" height="30" as="geometry" />
        </mxCell>
        <mxCell id="ggH6qVAM2lmH8Wj2QLWl-107" value="1...N" style="text;html=1;align=center;verticalAlign=middle;whiteSpace=wrap;rounded=0;fontSize=16;" parent="uagx2OvaHW0bifwhurHR-37" vertex="1">
          <mxGeometry x="170" y="180" width="60" height="30" as="geometry" />
        </mxCell>
        <mxCell id="ggH6qVAM2lmH8Wj2QLWl-109" value="1...N" style="text;html=1;align=center;verticalAlign=middle;whiteSpace=wrap;rounded=0;fontSize=16;" parent="uagx2OvaHW0bifwhurHR-37" vertex="1">
          <mxGeometry x="364" y="65" width="60" height="30" as="geometry" />
        </mxCell>
        <mxCell id="uagx2OvaHW0bifwhurHR-1" value="" style="endArrow=classic;startArrow=classic;html=1;rounded=0;fontSize=12;startSize=8;endSize=8;curved=1;exitX=0.5;exitY=0;exitDx=0;exitDy=0;entryX=0;entryY=1;entryDx=0;entryDy=0;" edge="1" parent="uagx2OvaHW0bifwhurHR-37" source="ggH6qVAM2lmH8Wj2QLWl-7" target="ggH6qVAM2lmH8Wj2QLWl-34">
          <mxGeometry width="50" height="50" relative="1" as="geometry">
            <mxPoint x="500" y="270" as="sourcePoint" />
            <mxPoint x="550" y="220" as="targetPoint" />
          </mxGeometry>
        </mxCell>
        <mxCell id="uagx2OvaHW0bifwhurHR-3" value="Fecha fin" style="ellipse;whiteSpace=wrap;html=1;" vertex="1" parent="uagx2OvaHW0bifwhurHR-37">
          <mxGeometry x="570" y="210" width="120" height="80" as="geometry" />
        </mxCell>
        <mxCell id="uagx2OvaHW0bifwhurHR-4" value="" style="endArrow=classic;startArrow=classic;html=1;rounded=0;fontSize=12;startSize=8;endSize=8;curved=1;exitX=1;exitY=0;exitDx=0;exitDy=0;" edge="1" parent="uagx2OvaHW0bifwhurHR-37" source="ggH6qVAM2lmH8Wj2QLWl-34">
          <mxGeometry width="50" height="50" relative="1" as="geometry">
            <mxPoint x="540" y="210" as="sourcePoint" />
            <mxPoint x="590" y="160" as="targetPoint" />
          </mxGeometry>
        </mxCell>
        <mxCell id="uagx2OvaHW0bifwhurHR-5" value="" style="endArrow=classic;startArrow=classic;html=1;rounded=0;fontSize=12;startSize=8;endSize=8;curved=1;exitX=1;exitY=1;exitDx=0;exitDy=0;entryX=0.242;entryY=0.075;entryDx=0;entryDy=0;entryPerimeter=0;" edge="1" parent="uagx2OvaHW0bifwhurHR-37" source="ggH6qVAM2lmH8Wj2QLWl-34" target="uagx2OvaHW0bifwhurHR-3">
          <mxGeometry width="50" height="50" relative="1" as="geometry">
            <mxPoint x="550" y="270" as="sourcePoint" />
            <mxPoint x="600" y="220" as="targetPoint" />
          </mxGeometry>
        </mxCell>
        <mxCell id="uagx2OvaHW0bifwhurHR-6" value="Casting" style="ellipse;whiteSpace=wrap;html=1;" vertex="1" parent="uagx2OvaHW0bifwhurHR-37">
          <mxGeometry x="290" y="180" width="120" height="80" as="geometry" />
        </mxCell>
        <mxCell id="uagx2OvaHW0bifwhurHR-8" value="" style="endArrow=classic;startArrow=classic;html=1;rounded=0;fontSize=12;startSize=8;endSize=8;curved=1;exitX=0.375;exitY=0.025;exitDx=0;exitDy=0;exitPerimeter=0;entryX=0.313;entryY=0.863;entryDx=0;entryDy=0;entryPerimeter=0;" edge="1" parent="uagx2OvaHW0bifwhurHR-37" source="uagx2OvaHW0bifwhurHR-6" target="ggH6qVAM2lmH8Wj2QLWl-31">
          <mxGeometry width="50" height="50" relative="1" as="geometry">
            <mxPoint x="310" y="210" as="sourcePoint" />
            <mxPoint x="360" y="160" as="targetPoint" />
          </mxGeometry>
        </mxCell>
        <mxCell id="uagx2OvaHW0bifwhurHR-38" value="" style="group" vertex="1" connectable="0" parent="1">
          <mxGeometry x="50" y="680" width="640" height="489" as="geometry" />
        </mxCell>
        <mxCell id="8H68mNQwwJHf9KVUA9kT-2" value="" style="edgeStyle=entityRelationEdgeStyle;fontSize=12;html=1;endArrow=ERoneToMany;startArrow=ERmandOne;rounded=0;startSize=8;endSize=8;curved=1;" parent="uagx2OvaHW0bifwhurHR-38" edge="1">
          <mxGeometry width="100" height="100" relative="1" as="geometry">
            <mxPoint x="210" y="60" as="sourcePoint" />
            <mxPoint x="460" y="170" as="targetPoint" />
          </mxGeometry>
        </mxCell>
        <mxCell id="ggH6qVAM2lmH8Wj2QLWl-48" value="Actores" style="shape=table;startSize=30;container=1;collapsible=1;childLayout=tableLayout;fixedRows=1;rowLines=0;fontStyle=1;align=center;resizeLast=1;html=1;" parent="uagx2OvaHW0bifwhurHR-38" vertex="1">
          <mxGeometry x="30" y="10" width="180" height="120" as="geometry" />
        </mxCell>
        <mxCell id="ggH6qVAM2lmH8Wj2QLWl-49" value="" style="shape=tableRow;horizontal=0;startSize=0;swimlaneHead=0;swimlaneBody=0;fillColor=none;collapsible=0;dropTarget=0;points=[[0,0.5],[1,0.5]];portConstraint=eastwest;top=0;left=0;right=0;bottom=1;" parent="ggH6qVAM2lmH8Wj2QLWl-48" vertex="1">
          <mxGeometry y="30" width="180" height="30" as="geometry" />
        </mxCell>
        <mxCell id="ggH6qVAM2lmH8Wj2QLWl-50" value="PK" style="shape=partialRectangle;connectable=0;fillColor=none;top=0;left=0;bottom=0;right=0;fontStyle=1;overflow=hidden;whiteSpace=wrap;html=1;" parent="ggH6qVAM2lmH8Wj2QLWl-49" vertex="1">
          <mxGeometry width="30" height="30" as="geometry">
            <mxRectangle width="30" height="30" as="alternateBounds" />
          </mxGeometry>
        </mxCell>
        <mxCell id="ggH6qVAM2lmH8Wj2QLWl-51" value="Nombre" style="shape=partialRectangle;connectable=0;fillColor=none;top=0;left=0;bottom=0;right=0;align=left;spacingLeft=6;fontStyle=5;overflow=hidden;whiteSpace=wrap;html=1;" parent="ggH6qVAM2lmH8Wj2QLWl-49" vertex="1">
          <mxGeometry x="30" width="150" height="30" as="geometry">
            <mxRectangle width="150" height="30" as="alternateBounds" />
          </mxGeometry>
        </mxCell>
        <mxCell id="ggH6qVAM2lmH8Wj2QLWl-52" value="" style="shape=tableRow;horizontal=0;startSize=0;swimlaneHead=0;swimlaneBody=0;fillColor=none;collapsible=0;dropTarget=0;points=[[0,0.5],[1,0.5]];portConstraint=eastwest;top=0;left=0;right=0;bottom=0;" parent="ggH6qVAM2lmH8Wj2QLWl-48" vertex="1">
          <mxGeometry y="60" width="180" height="30" as="geometry" />
        </mxCell>
        <mxCell id="ggH6qVAM2lmH8Wj2QLWl-53" value="" style="shape=partialRectangle;connectable=0;fillColor=none;top=0;left=0;bottom=0;right=0;editable=1;overflow=hidden;whiteSpace=wrap;html=1;" parent="ggH6qVAM2lmH8Wj2QLWl-52" vertex="1">
          <mxGeometry width="30" height="30" as="geometry">
            <mxRectangle width="30" height="30" as="alternateBounds" />
          </mxGeometry>
        </mxCell>
        <mxCell id="ggH6qVAM2lmH8Wj2QLWl-54" value="genero" style="shape=partialRectangle;connectable=0;fillColor=none;top=0;left=0;bottom=0;right=0;align=left;spacingLeft=6;overflow=hidden;whiteSpace=wrap;html=1;" parent="ggH6qVAM2lmH8Wj2QLWl-52" vertex="1">
          <mxGeometry x="30" width="150" height="30" as="geometry">
            <mxRectangle width="150" height="30" as="alternateBounds" />
          </mxGeometry>
        </mxCell>
        <mxCell id="ggH6qVAM2lmH8Wj2QLWl-55" value="" style="shape=tableRow;horizontal=0;startSize=0;swimlaneHead=0;swimlaneBody=0;fillColor=none;collapsible=0;dropTarget=0;points=[[0,0.5],[1,0.5]];portConstraint=eastwest;top=0;left=0;right=0;bottom=0;" parent="ggH6qVAM2lmH8Wj2QLWl-48" vertex="1">
          <mxGeometry y="90" width="180" height="30" as="geometry" />
        </mxCell>
        <mxCell id="ggH6qVAM2lmH8Wj2QLWl-56" value="" style="shape=partialRectangle;connectable=0;fillColor=none;top=0;left=0;bottom=0;right=0;editable=1;overflow=hidden;whiteSpace=wrap;html=1;" parent="ggH6qVAM2lmH8Wj2QLWl-55" vertex="1">
          <mxGeometry width="30" height="30" as="geometry">
            <mxRectangle width="30" height="30" as="alternateBounds" />
          </mxGeometry>
        </mxCell>
        <mxCell id="ggH6qVAM2lmH8Wj2QLWl-57" value="nacionalidad" style="shape=partialRectangle;connectable=0;fillColor=none;top=0;left=0;bottom=0;right=0;align=left;spacingLeft=6;overflow=hidden;whiteSpace=wrap;html=1;" parent="ggH6qVAM2lmH8Wj2QLWl-55" vertex="1">
          <mxGeometry x="30" width="150" height="30" as="geometry">
            <mxRectangle width="150" height="30" as="alternateBounds" />
          </mxGeometry>
        </mxCell>
        <mxCell id="ggH6qVAM2lmH8Wj2QLWl-115" value="" style="group" parent="uagx2OvaHW0bifwhurHR-38" vertex="1" connectable="0">
          <mxGeometry x="460" width="180" height="210" as="geometry" />
        </mxCell>
        <mxCell id="ggH6qVAM2lmH8Wj2QLWl-74" value="Pelicula" style="shape=table;startSize=30;container=1;collapsible=1;childLayout=tableLayout;fixedRows=1;rowLines=0;fontStyle=1;align=center;resizeLast=1;html=1;" parent="ggH6qVAM2lmH8Wj2QLWl-115" vertex="1">
          <mxGeometry width="180" height="210" as="geometry" />
        </mxCell>
        <mxCell id="ggH6qVAM2lmH8Wj2QLWl-75" value="" style="shape=tableRow;horizontal=0;startSize=0;swimlaneHead=0;swimlaneBody=0;fillColor=none;collapsible=0;dropTarget=0;points=[[0,0.5],[1,0.5]];portConstraint=eastwest;top=0;left=0;right=0;bottom=1;" parent="ggH6qVAM2lmH8Wj2QLWl-74" vertex="1">
          <mxGeometry y="30" width="180" height="30" as="geometry" />
        </mxCell>
        <mxCell id="ggH6qVAM2lmH8Wj2QLWl-76" value="PK" style="shape=partialRectangle;connectable=0;fillColor=none;top=0;left=0;bottom=0;right=0;fontStyle=1;overflow=hidden;whiteSpace=wrap;html=1;" parent="ggH6qVAM2lmH8Wj2QLWl-75" vertex="1">
          <mxGeometry width="30" height="30" as="geometry">
            <mxRectangle width="30" height="30" as="alternateBounds" />
          </mxGeometry>
        </mxCell>
        <mxCell id="ggH6qVAM2lmH8Wj2QLWl-77" value="Título" style="shape=partialRectangle;connectable=0;fillColor=none;top=0;left=0;bottom=0;right=0;align=left;spacingLeft=6;fontStyle=5;overflow=hidden;whiteSpace=wrap;html=1;" parent="ggH6qVAM2lmH8Wj2QLWl-75" vertex="1">
          <mxGeometry x="30" width="150" height="30" as="geometry">
            <mxRectangle width="150" height="30" as="alternateBounds" />
          </mxGeometry>
        </mxCell>
        <mxCell id="ggH6qVAM2lmH8Wj2QLWl-78" value="" style="shape=tableRow;horizontal=0;startSize=0;swimlaneHead=0;swimlaneBody=0;fillColor=none;collapsible=0;dropTarget=0;points=[[0,0.5],[1,0.5]];portConstraint=eastwest;top=0;left=0;right=0;bottom=0;" parent="ggH6qVAM2lmH8Wj2QLWl-74" vertex="1">
          <mxGeometry y="60" width="180" height="30" as="geometry" />
        </mxCell>
        <mxCell id="ggH6qVAM2lmH8Wj2QLWl-79" value="" style="shape=partialRectangle;connectable=0;fillColor=none;top=0;left=0;bottom=0;right=0;editable=1;overflow=hidden;whiteSpace=wrap;html=1;" parent="ggH6qVAM2lmH8Wj2QLWl-78" vertex="1">
          <mxGeometry width="30" height="30" as="geometry">
            <mxRectangle width="30" height="30" as="alternateBounds" />
          </mxGeometry>
        </mxCell>
        <mxCell id="ggH6qVAM2lmH8Wj2QLWl-80" value="fecha estreno" style="shape=partialRectangle;connectable=0;fillColor=none;top=0;left=0;bottom=0;right=0;align=left;spacingLeft=6;overflow=hidden;whiteSpace=wrap;html=1;" parent="ggH6qVAM2lmH8Wj2QLWl-78" vertex="1">
          <mxGeometry x="30" width="150" height="30" as="geometry">
            <mxRectangle width="150" height="30" as="alternateBounds" />
          </mxGeometry>
        </mxCell>
        <mxCell id="ggH6qVAM2lmH8Wj2QLWl-81" value="" style="shape=tableRow;horizontal=0;startSize=0;swimlaneHead=0;swimlaneBody=0;fillColor=none;collapsible=0;dropTarget=0;points=[[0,0.5],[1,0.5]];portConstraint=eastwest;top=0;left=0;right=0;bottom=0;" parent="ggH6qVAM2lmH8Wj2QLWl-74" vertex="1">
          <mxGeometry y="90" width="180" height="30" as="geometry" />
        </mxCell>
        <mxCell id="ggH6qVAM2lmH8Wj2QLWl-82" value="" style="shape=partialRectangle;connectable=0;fillColor=none;top=0;left=0;bottom=0;right=0;editable=1;overflow=hidden;whiteSpace=wrap;html=1;" parent="ggH6qVAM2lmH8Wj2QLWl-81" vertex="1">
          <mxGeometry width="30" height="30" as="geometry">
            <mxRectangle width="30" height="30" as="alternateBounds" />
          </mxGeometry>
        </mxCell>
        <mxCell id="ggH6qVAM2lmH8Wj2QLWl-83" value="nacionalidad" style="shape=partialRectangle;connectable=0;fillColor=none;top=0;left=0;bottom=0;right=0;align=left;spacingLeft=6;overflow=hidden;whiteSpace=wrap;html=1;" parent="ggH6qVAM2lmH8Wj2QLWl-81" vertex="1">
          <mxGeometry x="30" width="150" height="30" as="geometry">
            <mxRectangle width="150" height="30" as="alternateBounds" />
          </mxGeometry>
        </mxCell>
        <mxCell id="ggH6qVAM2lmH8Wj2QLWl-84" value="" style="shape=tableRow;horizontal=0;startSize=0;swimlaneHead=0;swimlaneBody=0;fillColor=none;collapsible=0;dropTarget=0;points=[[0,0.5],[1,0.5]];portConstraint=eastwest;top=0;left=0;right=0;bottom=0;" parent="ggH6qVAM2lmH8Wj2QLWl-74" vertex="1">
          <mxGeometry y="120" width="180" height="30" as="geometry" />
        </mxCell>
        <mxCell id="ggH6qVAM2lmH8Wj2QLWl-85" value="" style="shape=partialRectangle;connectable=0;fillColor=none;top=0;left=0;bottom=0;right=0;editable=1;overflow=hidden;whiteSpace=wrap;html=1;" parent="ggH6qVAM2lmH8Wj2QLWl-84" vertex="1">
          <mxGeometry width="30" height="30" as="geometry">
            <mxRectangle width="30" height="30" as="alternateBounds" />
          </mxGeometry>
        </mxCell>
        <mxCell id="ggH6qVAM2lmH8Wj2QLWl-86" value="productor" style="shape=partialRectangle;connectable=0;fillColor=none;top=0;left=0;bottom=0;right=0;align=left;spacingLeft=6;overflow=hidden;whiteSpace=wrap;html=1;" parent="ggH6qVAM2lmH8Wj2QLWl-84" vertex="1">
          <mxGeometry x="30" width="150" height="30" as="geometry">
            <mxRectangle width="150" height="30" as="alternateBounds" />
          </mxGeometry>
        </mxCell>
        <mxCell id="ggH6qVAM2lmH8Wj2QLWl-111" value="nombre actor" style="shape=partialRectangle;connectable=0;fillColor=none;top=0;left=0;bottom=0;right=0;align=left;spacingLeft=6;overflow=hidden;whiteSpace=wrap;html=1;" parent="ggH6qVAM2lmH8Wj2QLWl-115" vertex="1">
          <mxGeometry x="30" y="150" width="150" height="30" as="geometry">
            <mxRectangle width="150" height="30" as="alternateBounds" />
          </mxGeometry>
        </mxCell>
        <mxCell id="ggH6qVAM2lmH8Wj2QLWl-112" value="ID copia" style="shape=partialRectangle;connectable=0;fillColor=none;top=0;left=0;bottom=0;right=0;align=left;spacingLeft=6;overflow=hidden;whiteSpace=wrap;html=1;" parent="ggH6qVAM2lmH8Wj2QLWl-115" vertex="1">
          <mxGeometry x="30" y="180" width="150" height="30" as="geometry">
            <mxRectangle width="150" height="30" as="alternateBounds" />
          </mxGeometry>
        </mxCell>
        <mxCell id="ggH6qVAM2lmH8Wj2QLWl-113" value="FK" style="shape=partialRectangle;connectable=0;fillColor=none;top=0;left=0;bottom=0;right=0;editable=1;overflow=hidden;whiteSpace=wrap;html=1;" parent="ggH6qVAM2lmH8Wj2QLWl-115" vertex="1">
          <mxGeometry y="150" width="30" height="30" as="geometry">
            <mxRectangle width="30" height="30" as="alternateBounds" />
          </mxGeometry>
        </mxCell>
        <mxCell id="ggH6qVAM2lmH8Wj2QLWl-114" value="FK" style="shape=partialRectangle;connectable=0;fillColor=none;top=0;left=0;bottom=0;right=0;editable=1;overflow=hidden;whiteSpace=wrap;html=1;" parent="ggH6qVAM2lmH8Wj2QLWl-115" vertex="1">
          <mxGeometry y="180" width="30" height="30" as="geometry">
            <mxRectangle width="30" height="30" as="alternateBounds" />
          </mxGeometry>
        </mxCell>
        <mxCell id="ggH6qVAM2lmH8Wj2QLWl-129" value="" style="shape=partialRectangle;connectable=0;fillColor=none;top=0;left=0;bottom=0;right=0;editable=1;overflow=hidden;whiteSpace=wrap;html=1;" parent="uagx2OvaHW0bifwhurHR-38" vertex="1">
          <mxGeometry x="330" y="130" width="30" height="30" as="geometry">
            <mxRectangle width="30" height="30" as="alternateBounds" />
          </mxGeometry>
        </mxCell>
        <mxCell id="ggH6qVAM2lmH8Wj2QLWl-130" value="" style="shape=partialRectangle;connectable=0;fillColor=none;top=0;left=0;bottom=0;right=0;editable=1;overflow=hidden;whiteSpace=wrap;html=1;" parent="uagx2OvaHW0bifwhurHR-38" vertex="1">
          <mxGeometry x="330" y="140" width="30" height="30" as="geometry">
            <mxRectangle width="30" height="30" as="alternateBounds" />
          </mxGeometry>
        </mxCell>
        <mxCell id="ggH6qVAM2lmH8Wj2QLWl-133" value="" style="shape=partialRectangle;connectable=0;fillColor=none;top=0;left=0;bottom=0;right=0;editable=1;overflow=hidden;whiteSpace=wrap;html=1;" parent="uagx2OvaHW0bifwhurHR-38" vertex="1">
          <mxGeometry x="330" y="160" width="30" height="30" as="geometry">
            <mxRectangle width="30" height="30" as="alternateBounds" />
          </mxGeometry>
        </mxCell>
        <mxCell id="ggH6qVAM2lmH8Wj2QLWl-139" value="" style="group" parent="uagx2OvaHW0bifwhurHR-38" vertex="1" connectable="0">
          <mxGeometry x="430" y="277" width="186" height="212" as="geometry" />
        </mxCell>
        <mxCell id="ggH6qVAM2lmH8Wj2QLWl-87" value="Copias" style="shape=table;startSize=30;container=1;collapsible=1;childLayout=tableLayout;fixedRows=1;rowLines=0;fontStyle=1;align=center;resizeLast=1;html=1;" parent="ggH6qVAM2lmH8Wj2QLWl-139" vertex="1">
          <mxGeometry width="180" height="211" as="geometry" />
        </mxCell>
        <mxCell id="ggH6qVAM2lmH8Wj2QLWl-88" value="" style="shape=tableRow;horizontal=0;startSize=0;swimlaneHead=0;swimlaneBody=0;fillColor=none;collapsible=0;dropTarget=0;points=[[0,0.5],[1,0.5]];portConstraint=eastwest;top=0;left=0;right=0;bottom=1;" parent="ggH6qVAM2lmH8Wj2QLWl-87" vertex="1">
          <mxGeometry y="30" width="180" height="30" as="geometry" />
        </mxCell>
        <mxCell id="ggH6qVAM2lmH8Wj2QLWl-89" value="PK" style="shape=partialRectangle;connectable=0;fillColor=none;top=0;left=0;bottom=0;right=0;fontStyle=1;overflow=hidden;whiteSpace=wrap;html=1;" parent="ggH6qVAM2lmH8Wj2QLWl-88" vertex="1">
          <mxGeometry width="30" height="30" as="geometry">
            <mxRectangle width="30" height="30" as="alternateBounds" />
          </mxGeometry>
        </mxCell>
        <mxCell id="ggH6qVAM2lmH8Wj2QLWl-90" value="ID" style="shape=partialRectangle;connectable=0;fillColor=none;top=0;left=0;bottom=0;right=0;align=left;spacingLeft=6;fontStyle=5;overflow=hidden;whiteSpace=wrap;html=1;" parent="ggH6qVAM2lmH8Wj2QLWl-88" vertex="1">
          <mxGeometry x="30" width="150" height="30" as="geometry">
            <mxRectangle width="150" height="30" as="alternateBounds" />
          </mxGeometry>
        </mxCell>
        <mxCell id="ggH6qVAM2lmH8Wj2QLWl-91" value="" style="shape=tableRow;horizontal=0;startSize=0;swimlaneHead=0;swimlaneBody=0;fillColor=none;collapsible=0;dropTarget=0;points=[[0,0.5],[1,0.5]];portConstraint=eastwest;top=0;left=0;right=0;bottom=0;" parent="ggH6qVAM2lmH8Wj2QLWl-87" vertex="1">
          <mxGeometry y="60" width="180" height="30" as="geometry" />
        </mxCell>
        <mxCell id="ggH6qVAM2lmH8Wj2QLWl-92" value="" style="shape=partialRectangle;connectable=0;fillColor=none;top=0;left=0;bottom=0;right=0;editable=1;overflow=hidden;whiteSpace=wrap;html=1;" parent="ggH6qVAM2lmH8Wj2QLWl-91" vertex="1">
          <mxGeometry width="30" height="30" as="geometry">
            <mxRectangle width="30" height="30" as="alternateBounds" />
          </mxGeometry>
        </mxCell>
        <mxCell id="ggH6qVAM2lmH8Wj2QLWl-93" value="condición" style="shape=partialRectangle;connectable=0;fillColor=none;top=0;left=0;bottom=0;right=0;align=left;spacingLeft=6;overflow=hidden;whiteSpace=wrap;html=1;" parent="ggH6qVAM2lmH8Wj2QLWl-91" vertex="1">
          <mxGeometry x="30" width="150" height="30" as="geometry">
            <mxRectangle width="150" height="30" as="alternateBounds" />
          </mxGeometry>
        </mxCell>
        <mxCell id="ggH6qVAM2lmH8Wj2QLWl-94" value="" style="shape=tableRow;horizontal=0;startSize=0;swimlaneHead=0;swimlaneBody=0;fillColor=none;collapsible=0;dropTarget=0;points=[[0,0.5],[1,0.5]];portConstraint=eastwest;top=0;left=0;right=0;bottom=0;" parent="ggH6qVAM2lmH8Wj2QLWl-87" vertex="1">
          <mxGeometry y="90" width="180" height="30" as="geometry" />
        </mxCell>
        <mxCell id="ggH6qVAM2lmH8Wj2QLWl-95" value="FK" style="shape=partialRectangle;connectable=0;fillColor=none;top=0;left=0;bottom=0;right=0;editable=1;overflow=hidden;whiteSpace=wrap;html=1;" parent="ggH6qVAM2lmH8Wj2QLWl-94" vertex="1">
          <mxGeometry width="30" height="30" as="geometry">
            <mxRectangle width="30" height="30" as="alternateBounds" />
          </mxGeometry>
        </mxCell>
        <mxCell id="ggH6qVAM2lmH8Wj2QLWl-96" value="Nombre cliente" style="shape=partialRectangle;connectable=0;fillColor=none;top=0;left=0;bottom=0;right=0;align=left;spacingLeft=6;overflow=hidden;whiteSpace=wrap;html=1;" parent="ggH6qVAM2lmH8Wj2QLWl-94" vertex="1">
          <mxGeometry x="30" width="150" height="30" as="geometry">
            <mxRectangle width="150" height="30" as="alternateBounds" />
          </mxGeometry>
        </mxCell>
        <mxCell id="ggH6qVAM2lmH8Wj2QLWl-97" value="" style="shape=tableRow;horizontal=0;startSize=0;swimlaneHead=0;swimlaneBody=0;fillColor=none;collapsible=0;dropTarget=0;points=[[0,0.5],[1,0.5]];portConstraint=eastwest;top=0;left=0;right=0;bottom=0;" parent="ggH6qVAM2lmH8Wj2QLWl-87" vertex="1">
          <mxGeometry y="120" width="180" height="31" as="geometry" />
        </mxCell>
        <mxCell id="ggH6qVAM2lmH8Wj2QLWl-98" value="FK" style="shape=partialRectangle;connectable=0;fillColor=none;top=0;left=0;bottom=0;right=0;editable=1;overflow=hidden;whiteSpace=wrap;html=1;" parent="ggH6qVAM2lmH8Wj2QLWl-97" vertex="1">
          <mxGeometry width="30" height="31" as="geometry">
            <mxRectangle width="30" height="31" as="alternateBounds" />
          </mxGeometry>
        </mxCell>
        <mxCell id="ggH6qVAM2lmH8Wj2QLWl-99" value="Teléfono cliente" style="shape=partialRectangle;connectable=0;fillColor=none;top=0;left=0;bottom=0;right=0;align=left;spacingLeft=6;overflow=hidden;whiteSpace=wrap;html=1;" parent="ggH6qVAM2lmH8Wj2QLWl-97" vertex="1">
          <mxGeometry x="30" width="150" height="31" as="geometry">
            <mxRectangle width="150" height="31" as="alternateBounds" />
          </mxGeometry>
        </mxCell>
        <mxCell id="ggH6qVAM2lmH8Wj2QLWl-134" value="Fecha alquiler" style="shape=partialRectangle;connectable=0;fillColor=none;top=0;left=0;bottom=0;right=0;align=left;spacingLeft=6;overflow=hidden;whiteSpace=wrap;html=1;" parent="ggH6qVAM2lmH8Wj2QLWl-139" vertex="1">
          <mxGeometry x="30" y="149" width="150" height="31" as="geometry">
            <mxRectangle width="150" height="31" as="alternateBounds" />
          </mxGeometry>
        </mxCell>
        <mxCell id="ggH6qVAM2lmH8Wj2QLWl-135" value="Fecha devolución" style="shape=partialRectangle;connectable=0;fillColor=none;top=0;left=0;bottom=0;right=0;align=left;spacingLeft=6;overflow=hidden;whiteSpace=wrap;html=1;" parent="ggH6qVAM2lmH8Wj2QLWl-139" vertex="1">
          <mxGeometry x="30" y="180" width="150" height="31" as="geometry">
            <mxRectangle width="150" height="31" as="alternateBounds" />
          </mxGeometry>
        </mxCell>
        <mxCell id="ggH6qVAM2lmH8Wj2QLWl-136" value="FK" style="shape=partialRectangle;connectable=0;fillColor=none;top=0;left=0;bottom=0;right=0;editable=1;overflow=hidden;whiteSpace=wrap;html=1;" parent="ggH6qVAM2lmH8Wj2QLWl-139" vertex="1">
          <mxGeometry y="149" width="30" height="30" as="geometry">
            <mxRectangle width="30" height="30" as="alternateBounds" />
          </mxGeometry>
        </mxCell>
        <mxCell id="ggH6qVAM2lmH8Wj2QLWl-137" value="FK" style="shape=partialRectangle;connectable=0;fillColor=none;top=0;left=0;bottom=0;right=0;editable=1;overflow=hidden;whiteSpace=wrap;html=1;" parent="ggH6qVAM2lmH8Wj2QLWl-139" vertex="1">
          <mxGeometry x="1" y="179" width="30" height="30" as="geometry">
            <mxRectangle width="30" height="30" as="alternateBounds" />
          </mxGeometry>
        </mxCell>
        <mxCell id="ggH6qVAM2lmH8Wj2QLWl-140" value="" style="group" parent="uagx2OvaHW0bifwhurHR-38" vertex="1" connectable="0">
          <mxGeometry y="220" width="180" height="180" as="geometry" />
        </mxCell>
        <mxCell id="ggH6qVAM2lmH8Wj2QLWl-61" value="Cliente" style="shape=table;startSize=30;container=1;collapsible=1;childLayout=tableLayout;fixedRows=1;rowLines=0;fontStyle=1;align=center;resizeLast=1;html=1;" parent="ggH6qVAM2lmH8Wj2QLWl-140" vertex="1">
          <mxGeometry width="180" height="180" as="geometry" />
        </mxCell>
        <mxCell id="ggH6qVAM2lmH8Wj2QLWl-62" value="" style="shape=tableRow;horizontal=0;startSize=0;swimlaneHead=0;swimlaneBody=0;fillColor=none;collapsible=0;dropTarget=0;points=[[0,0.5],[1,0.5]];portConstraint=eastwest;top=0;left=0;right=0;bottom=1;" parent="ggH6qVAM2lmH8Wj2QLWl-61" vertex="1">
          <mxGeometry y="30" width="180" height="30" as="geometry" />
        </mxCell>
        <mxCell id="ggH6qVAM2lmH8Wj2QLWl-63" value="PK" style="shape=partialRectangle;connectable=0;fillColor=none;top=0;left=0;bottom=0;right=0;fontStyle=1;overflow=hidden;whiteSpace=wrap;html=1;" parent="ggH6qVAM2lmH8Wj2QLWl-62" vertex="1">
          <mxGeometry width="30" height="30" as="geometry">
            <mxRectangle width="30" height="30" as="alternateBounds" />
          </mxGeometry>
        </mxCell>
        <mxCell id="ggH6qVAM2lmH8Wj2QLWl-64" value="Nombre" style="shape=partialRectangle;connectable=0;fillColor=none;top=0;left=0;bottom=0;right=0;align=left;spacingLeft=6;fontStyle=5;overflow=hidden;whiteSpace=wrap;html=1;" parent="ggH6qVAM2lmH8Wj2QLWl-62" vertex="1">
          <mxGeometry x="30" width="150" height="30" as="geometry">
            <mxRectangle width="150" height="30" as="alternateBounds" />
          </mxGeometry>
        </mxCell>
        <mxCell id="ggH6qVAM2lmH8Wj2QLWl-65" value="" style="shape=tableRow;horizontal=0;startSize=0;swimlaneHead=0;swimlaneBody=0;fillColor=none;collapsible=0;dropTarget=0;points=[[0,0.5],[1,0.5]];portConstraint=eastwest;top=0;left=0;right=0;bottom=0;" parent="ggH6qVAM2lmH8Wj2QLWl-61" vertex="1">
          <mxGeometry y="60" width="180" height="30" as="geometry" />
        </mxCell>
        <mxCell id="ggH6qVAM2lmH8Wj2QLWl-66" value="" style="shape=partialRectangle;connectable=0;fillColor=none;top=0;left=0;bottom=0;right=0;editable=1;overflow=hidden;whiteSpace=wrap;html=1;" parent="ggH6qVAM2lmH8Wj2QLWl-65" vertex="1">
          <mxGeometry width="30" height="30" as="geometry">
            <mxRectangle width="30" height="30" as="alternateBounds" />
          </mxGeometry>
        </mxCell>
        <mxCell id="ggH6qVAM2lmH8Wj2QLWl-67" value="dirección" style="shape=partialRectangle;connectable=0;fillColor=none;top=0;left=0;bottom=0;right=0;align=left;spacingLeft=6;overflow=hidden;whiteSpace=wrap;html=1;" parent="ggH6qVAM2lmH8Wj2QLWl-65" vertex="1">
          <mxGeometry x="30" width="150" height="30" as="geometry">
            <mxRectangle width="150" height="30" as="alternateBounds" />
          </mxGeometry>
        </mxCell>
        <mxCell id="ggH6qVAM2lmH8Wj2QLWl-68" value="" style="shape=tableRow;horizontal=0;startSize=0;swimlaneHead=0;swimlaneBody=0;fillColor=none;collapsible=0;dropTarget=0;points=[[0,0.5],[1,0.5]];portConstraint=eastwest;top=0;left=0;right=0;bottom=0;" parent="ggH6qVAM2lmH8Wj2QLWl-61" vertex="1">
          <mxGeometry y="90" width="180" height="30" as="geometry" />
        </mxCell>
        <mxCell id="ggH6qVAM2lmH8Wj2QLWl-69" value="" style="shape=partialRectangle;connectable=0;fillColor=none;top=0;left=0;bottom=0;right=0;editable=1;overflow=hidden;whiteSpace=wrap;html=1;" parent="ggH6qVAM2lmH8Wj2QLWl-68" vertex="1">
          <mxGeometry width="30" height="30" as="geometry">
            <mxRectangle width="30" height="30" as="alternateBounds" />
          </mxGeometry>
        </mxCell>
        <mxCell id="ggH6qVAM2lmH8Wj2QLWl-70" value="teléfono" style="shape=partialRectangle;connectable=0;fillColor=none;top=0;left=0;bottom=0;right=0;align=left;spacingLeft=6;overflow=hidden;whiteSpace=wrap;html=1;" parent="ggH6qVAM2lmH8Wj2QLWl-68" vertex="1">
          <mxGeometry x="30" width="150" height="30" as="geometry">
            <mxRectangle width="150" height="30" as="alternateBounds" />
          </mxGeometry>
        </mxCell>
        <mxCell id="ggH6qVAM2lmH8Wj2QLWl-131" value="Fecha alquiler" style="shape=partialRectangle;connectable=0;fillColor=none;top=0;left=0;bottom=0;right=0;align=left;spacingLeft=6;overflow=hidden;whiteSpace=wrap;html=1;" parent="ggH6qVAM2lmH8Wj2QLWl-140" vertex="1">
          <mxGeometry x="30" y="120" width="150" height="30" as="geometry">
            <mxRectangle width="150" height="30" as="alternateBounds" />
          </mxGeometry>
        </mxCell>
        <mxCell id="ggH6qVAM2lmH8Wj2QLWl-132" value="Fecha devolución" style="shape=partialRectangle;connectable=0;fillColor=none;top=0;left=0;bottom=0;right=0;align=left;spacingLeft=6;overflow=hidden;whiteSpace=wrap;html=1;" parent="ggH6qVAM2lmH8Wj2QLWl-140" vertex="1">
          <mxGeometry x="30" y="150" width="150" height="30" as="geometry">
            <mxRectangle width="150" height="30" as="alternateBounds" />
          </mxGeometry>
        </mxCell>
        <mxCell id="ggH6qVAM2lmH8Wj2QLWl-116" value="Casting" style="shape=table;startSize=30;container=1;collapsible=1;childLayout=tableLayout;fixedRows=1;rowLines=0;fontStyle=1;align=center;resizeLast=1;html=1;color=white" parent="uagx2OvaHW0bifwhurHR-38" vertex="1">
          <mxGeometry x="240" y="70" width="180" height="150" as="geometry" />
        </mxCell>
        <mxCell id="ggH6qVAM2lmH8Wj2QLWl-117" value="" style="shape=tableRow;horizontal=0;startSize=0;swimlaneHead=0;swimlaneBody=0;fillColor=none;collapsible=0;dropTarget=0;points=[[0,0.5],[1,0.5]];portConstraint=eastwest;top=0;left=0;right=0;bottom=1;" parent="ggH6qVAM2lmH8Wj2QLWl-116" vertex="1">
          <mxGeometry y="30" width="180" height="30" as="geometry" />
        </mxCell>
        <mxCell id="ggH6qVAM2lmH8Wj2QLWl-118" value="PK" style="shape=partialRectangle;connectable=0;fillColor=none;top=0;left=0;bottom=0;right=0;fontStyle=1;overflow=hidden;whiteSpace=wrap;html=1;" parent="ggH6qVAM2lmH8Wj2QLWl-117" vertex="1">
          <mxGeometry width="30" height="30" as="geometry">
            <mxRectangle width="30" height="30" as="alternateBounds" />
          </mxGeometry>
        </mxCell>
        <mxCell id="ggH6qVAM2lmH8Wj2QLWl-119" value="ID casting" style="shape=partialRectangle;connectable=0;fillColor=white;top=0;left=0;bottom=0;right=0;align=left;spacingLeft=6;fontStyle=5;overflow=hidden;whiteSpace=wrap;html=1;" parent="ggH6qVAM2lmH8Wj2QLWl-117" vertex="1">
          <mxGeometry x="30" width="150" height="30" as="geometry">
            <mxRectangle width="150" height="30" as="alternateBounds" />
          </mxGeometry>
        </mxCell>
        <mxCell id="8H68mNQwwJHf9KVUA9kT-7" value="" style="edgeStyle=entityRelationEdgeStyle;fontSize=12;html=1;endArrow=ERmandOne;startArrow=ERmandOne;rounded=0;startSize=8;endSize=8;curved=1;exitX=0.122;exitY=0;exitDx=0;exitDy=0;exitPerimeter=0;" parent="uagx2OvaHW0bifwhurHR-38" edge="1" source="ggH6qVAM2lmH8Wj2QLWl-87">
          <mxGeometry width="100" height="100" relative="1" as="geometry">
            <mxPoint x="480" y="320" as="sourcePoint" />
            <mxPoint x="460" y="200" as="targetPoint" />
          </mxGeometry>
        </mxCell>
        <mxCell id="uagx2OvaHW0bifwhurHR-15" value="" style="shape=partialRectangle;connectable=0;fillColor=none;top=0;left=0;bottom=0;right=0;fontStyle=1;overflow=hidden;whiteSpace=wrap;html=1;" vertex="1" parent="uagx2OvaHW0bifwhurHR-38">
          <mxGeometry x="240" y="130" width="30" height="30" as="geometry">
            <mxRectangle width="30" height="30" as="alternateBounds" />
          </mxGeometry>
        </mxCell>
        <mxCell id="uagx2OvaHW0bifwhurHR-16" value="Protagonista" style="shape=partialRectangle;connectable=0;fillColor=white;top=0;left=0;bottom=0;right=0;align=left;spacingLeft=6;fontStyle=5;overflow=hidden;whiteSpace=wrap;html=1;" vertex="1" parent="uagx2OvaHW0bifwhurHR-38">
          <mxGeometry x="270" y="130" width="150" height="30" as="geometry">
            <mxRectangle width="150" height="30" as="alternateBounds" />
          </mxGeometry>
        </mxCell>
        <mxCell id="uagx2OvaHW0bifwhurHR-17" value="FK" style="shape=partialRectangle;connectable=0;fillColor=none;top=0;left=0;bottom=0;right=0;fontStyle=1;overflow=hidden;whiteSpace=wrap;html=1;" vertex="1" parent="uagx2OvaHW0bifwhurHR-38">
          <mxGeometry x="244" y="160" width="30" height="30" as="geometry">
            <mxRectangle width="30" height="30" as="alternateBounds" />
          </mxGeometry>
        </mxCell>
        <mxCell id="uagx2OvaHW0bifwhurHR-18" value="ID pelicula" style="shape=partialRectangle;connectable=0;fillColor=white;top=0;left=0;bottom=0;right=0;align=left;spacingLeft=6;fontStyle=5;overflow=hidden;whiteSpace=wrap;html=1;" vertex="1" parent="uagx2OvaHW0bifwhurHR-38">
          <mxGeometry x="274" y="160" width="150" height="30" as="geometry">
            <mxRectangle width="150" height="30" as="alternateBounds" />
          </mxGeometry>
        </mxCell>
        <mxCell id="uagx2OvaHW0bifwhurHR-19" value="FK" style="shape=partialRectangle;connectable=0;fillColor=none;top=0;left=0;bottom=0;right=0;fontStyle=1;overflow=hidden;whiteSpace=wrap;html=1;" vertex="1" parent="uagx2OvaHW0bifwhurHR-38">
          <mxGeometry x="240" y="190" width="30" height="30" as="geometry">
            <mxRectangle width="30" height="30" as="alternateBounds" />
          </mxGeometry>
        </mxCell>
        <mxCell id="uagx2OvaHW0bifwhurHR-20" value="ID actor" style="shape=partialRectangle;connectable=0;fillColor=white;top=0;left=0;bottom=0;right=0;align=left;spacingLeft=6;fontStyle=5;overflow=hidden;whiteSpace=wrap;html=1;" vertex="1" parent="uagx2OvaHW0bifwhurHR-38">
          <mxGeometry x="270" y="190" width="150" height="30" as="geometry">
            <mxRectangle width="150" height="30" as="alternateBounds" />
          </mxGeometry>
        </mxCell>
        <mxCell id="uagx2OvaHW0bifwhurHR-23" value="Alquiler" style="shape=table;startSize=30;container=1;collapsible=1;childLayout=tableLayout;fixedRows=1;rowLines=0;fontStyle=1;align=center;resizeLast=1;html=1;color=white" vertex="1" parent="uagx2OvaHW0bifwhurHR-38">
          <mxGeometry x="210" y="250" width="180" height="180" as="geometry" />
        </mxCell>
        <mxCell id="uagx2OvaHW0bifwhurHR-24" value="" style="shape=tableRow;horizontal=0;startSize=0;swimlaneHead=0;swimlaneBody=0;fillColor=none;collapsible=0;dropTarget=0;points=[[0,0.5],[1,0.5]];portConstraint=eastwest;top=0;left=0;right=0;bottom=1;" vertex="1" parent="uagx2OvaHW0bifwhurHR-23">
          <mxGeometry y="30" width="180" height="30" as="geometry" />
        </mxCell>
        <mxCell id="uagx2OvaHW0bifwhurHR-25" value="PK" style="shape=partialRectangle;connectable=0;fillColor=none;top=0;left=0;bottom=0;right=0;fontStyle=1;overflow=hidden;whiteSpace=wrap;html=1;" vertex="1" parent="uagx2OvaHW0bifwhurHR-24">
          <mxGeometry width="30" height="30" as="geometry">
            <mxRectangle width="30" height="30" as="alternateBounds" />
          </mxGeometry>
        </mxCell>
        <mxCell id="uagx2OvaHW0bifwhurHR-26" value="ID soxio" style="shape=partialRectangle;connectable=0;fillColor=white;top=0;left=0;bottom=0;right=0;align=left;spacingLeft=6;fontStyle=5;overflow=hidden;whiteSpace=wrap;html=1;" vertex="1" parent="uagx2OvaHW0bifwhurHR-24">
          <mxGeometry x="30" width="150" height="30" as="geometry">
            <mxRectangle width="150" height="30" as="alternateBounds" />
          </mxGeometry>
        </mxCell>
        <mxCell id="uagx2OvaHW0bifwhurHR-27" value="FK" style="shape=partialRectangle;connectable=0;fillColor=none;top=0;left=0;bottom=0;right=0;fontStyle=1;overflow=hidden;whiteSpace=wrap;html=1;" vertex="1" parent="uagx2OvaHW0bifwhurHR-38">
          <mxGeometry x="210" y="310" width="30" height="30" as="geometry">
            <mxRectangle width="30" height="30" as="alternateBounds" />
          </mxGeometry>
        </mxCell>
        <mxCell id="uagx2OvaHW0bifwhurHR-28" value="ID copia&lt;span style=&quot;color: rgba(0, 0, 0, 0); font-family: monospace; font-size: 0px; font-weight: 400; text-wrap: nowrap;&quot;&gt;%3CmxGraphModel%3E%3Croot%3E%3CmxCell%20id%3D%220%22%2F%3E%3CmxCell%20id%3D%221%22%20parent%3D%220%22%2F%3E%3CmxCell%20id%3D%222%22%20value%3D%22FK%22%20style%3D%22shape%3DpartialRectangle%3Bconnectable%3D0%3BfillColor%3Dnone%3Btop%3D0%3Bleft%3D0%3Bbottom%3D0%3Bright%3D0%3BfontStyle%3D1%3Boverflow%3Dhidden%3BwhiteSpace%3Dwrap%3Bhtml%3D1%3B%22%20vertex%3D%221%22%20parent%3D%221%22%3E%3CmxGeometry%20x%3D%22294%22%20y%3D%22840%22%20width%3D%2230%22%20height%3D%2230%22%20as%3D%22geometry%22%3E%3CmxRectangle%20width%3D%2230%22%20height%3D%2230%22%20as%3D%22alternateBounds%22%2F%3E%3C%2FmxGeometry%3E%3C%2FmxCell%3E%3CmxCell%20id%3D%223%22%20value%3D%22ID%20pelicula%22%20style%3D%22shape%3DpartialRectangle%3Bconnectable%3D0%3BfillColor%3Dwhite%3Btop%3D0%3Bleft%3D0%3Bbottom%3D0%3Bright%3D0%3Balign%3Dleft%3BspacingLeft%3D6%3BfontStyle%3D5%3Boverflow%3Dhidden%3BwhiteSpace%3Dwrap%3Bhtml%3D1%3B%22%20vertex%3D%221%22%20parent%3D%221%22%3E%3CmxGeometry%20x%3D%22324%22%20y%3D%22840%22%20width%3D%22150%22%20height%3D%2230%22%20as%3D%22geometry%22%3E%3CmxRectangle%20width%3D%22150%22%20height%3D%2230%22%20as%3D%22alternateBounds%22%2F%3E%3C%2FmxGeometry%3E%3C%2FmxCell%3E%3C%2Froot%3E%3C%2FmxGraphModel%3E&lt;/span&gt;" style="shape=partialRectangle;connectable=0;fillColor=white;top=0;left=0;bottom=0;right=0;align=left;spacingLeft=6;fontStyle=5;overflow=hidden;whiteSpace=wrap;html=1;" vertex="1" parent="uagx2OvaHW0bifwhurHR-38">
          <mxGeometry x="240" y="310" width="150" height="30" as="geometry">
            <mxRectangle width="150" height="30" as="alternateBounds" />
          </mxGeometry>
        </mxCell>
        <mxCell id="uagx2OvaHW0bifwhurHR-29" value="FK" style="shape=partialRectangle;connectable=0;fillColor=none;top=0;left=0;bottom=0;right=0;fontStyle=1;overflow=hidden;whiteSpace=wrap;html=1;" vertex="1" parent="uagx2OvaHW0bifwhurHR-38">
          <mxGeometry x="210" y="340" width="30" height="30" as="geometry">
            <mxRectangle width="30" height="30" as="alternateBounds" />
          </mxGeometry>
        </mxCell>
        <mxCell id="uagx2OvaHW0bifwhurHR-30" value="fecha inicio" style="shape=partialRectangle;connectable=0;fillColor=white;top=0;left=0;bottom=0;right=0;align=left;spacingLeft=6;fontStyle=5;overflow=hidden;whiteSpace=wrap;html=1;" vertex="1" parent="uagx2OvaHW0bifwhurHR-38">
          <mxGeometry x="240" y="340" width="150" height="30" as="geometry">
            <mxRectangle width="150" height="30" as="alternateBounds" />
          </mxGeometry>
        </mxCell>
        <mxCell id="uagx2OvaHW0bifwhurHR-31" value="" style="shape=partialRectangle;connectable=0;fillColor=none;top=0;left=0;bottom=0;right=0;fontStyle=1;overflow=hidden;whiteSpace=wrap;html=1;" vertex="1" parent="uagx2OvaHW0bifwhurHR-38">
          <mxGeometry x="210" y="368" width="30" height="30" as="geometry">
            <mxRectangle width="30" height="30" as="alternateBounds" />
          </mxGeometry>
        </mxCell>
        <mxCell id="uagx2OvaHW0bifwhurHR-32" value="fecha fin" style="shape=partialRectangle;connectable=0;fillColor=white;top=0;left=0;bottom=0;right=0;align=left;spacingLeft=6;fontStyle=5;overflow=hidden;whiteSpace=wrap;html=1;" vertex="1" parent="uagx2OvaHW0bifwhurHR-38">
          <mxGeometry x="240" y="368" width="150" height="30" as="geometry">
            <mxRectangle width="150" height="30" as="alternateBounds" />
          </mxGeometry>
        </mxCell>
        <mxCell id="uagx2OvaHW0bifwhurHR-33" value="PK" style="shape=partialRectangle;connectable=0;fillColor=none;top=0;left=0;bottom=0;right=0;fontStyle=1;overflow=hidden;whiteSpace=wrap;html=1;" vertex="1" parent="uagx2OvaHW0bifwhurHR-38">
          <mxGeometry x="210" y="400" width="30" height="30" as="geometry">
            <mxRectangle width="30" height="30" as="alternateBounds" />
          </mxGeometry>
        </mxCell>
        <mxCell id="uagx2OvaHW0bifwhurHR-34" value="ID alquiler" style="shape=partialRectangle;connectable=0;fillColor=white;top=0;left=0;bottom=0;right=0;align=left;spacingLeft=6;fontStyle=5;overflow=hidden;whiteSpace=wrap;html=1;" vertex="1" parent="uagx2OvaHW0bifwhurHR-38">
          <mxGeometry x="240" y="400" width="150" height="30" as="geometry">
            <mxRectangle width="150" height="30" as="alternateBounds" />
          </mxGeometry>
        </mxCell>
        <mxCell id="uagx2OvaHW0bifwhurHR-36" value="" style="edgeStyle=entityRelationEdgeStyle;fontSize=12;html=1;endArrow=ERoneToMany;startArrow=ERmandOne;rounded=0;startSize=8;endSize=8;curved=1;entryX=0.25;entryY=0;entryDx=0;entryDy=0;" edge="1" parent="uagx2OvaHW0bifwhurHR-38">
          <mxGeometry width="100" height="100" relative="1" as="geometry">
            <mxPoint x="190" y="240" as="sourcePoint" />
            <mxPoint x="265" y="260" as="targetPoint" />
            <Array as="points">
              <mxPoint x="410" y="280" />
            </Array>
          </mxGeometry>
        </mxCell>
        <mxCell id="uagx2OvaHW0bifwhurHR-35" value="" style="edgeStyle=entityRelationEdgeStyle;fontSize=12;html=1;endArrow=ERoneToMany;startArrow=ERmandOne;rounded=0;startSize=8;endSize=8;curved=1;entryX=-0.022;entryY=0.081;entryDx=0;entryDy=0;entryPerimeter=0;exitX=0.978;exitY=0.078;exitDx=0;exitDy=0;exitPerimeter=0;" edge="1" parent="uagx2OvaHW0bifwhurHR-38" source="uagx2OvaHW0bifwhurHR-23" target="ggH6qVAM2lmH8Wj2QLWl-87">
          <mxGeometry width="100" height="100" relative="1" as="geometry">
            <mxPoint x="390" y="270" as="sourcePoint" />
            <mxPoint x="465" y="290" as="targetPoint" />
          </mxGeometry>
        </mxCell>
      </root>
    </mxGraphModel>
  </diagram>
</mxfile>
